<svg xmlns="http://www.w3.org/2000/svg" viewBox="0 0 495.09 495.09"><defs><style>.cls-1{fill:#ffdea7;}.cls-2{fill:none;}.cls-2,.cls-4,.cls-5,.cls-6,.cls-7{stroke:#231f20;}.cls-2,.cls-5,.cls-6,.cls-7{stroke-miterlimit:10;}.cls-2,.cls-4,.cls-6{stroke-width:5.06px;}.cls-3,.cls-4,.cls-6{fill:#231f20;}.cls-4{stroke-linecap:round;stroke-linejoin:round;}.cls-5,.cls-7{fill:#fff;}.cls-5{stroke-width:2.01px;}.cls-7{stroke-width:1.8px;}</style></defs><title>Logo</title><g id="Layer_2" data-name="Layer 2"><g id="Logo_2" data-name="Logo 2"><rect class="cls-1" width="495.09" height="495.09" rx="74.48"/><line class="cls-2" x1="40.8" y1="79.72" x2="40.8" y2="130.13"/><rect class="cls-3" x="40.8" y="79.72" width="413.48" height="50.41"/><rect class="cls-4" x="40.8" y="58.74" width="413.48" height="20.98"/><rect class="cls-5" x="51.58" y="63.68" width="38.88" height="11.09"/><rect class="cls-5" x="102.02" y="63.68" width="38.88" height="11.09"/><rect class="cls-5" x="152.45" y="63.68" width="38.88" height="11.09"/><rect class="cls-5" x="202.89" y="63.68" width="38.88" height="11.09"/><rect class="cls-5" x="253.32" y="63.68" width="38.88" height="11.09"/><rect class="cls-5" x="303.76" y="63.68" width="38.88" height="11.09"/><rect class="cls-5" x="354.19" y="63.68" width="38.88" height="11.09"/><rect class="cls-5" x="404.63" y="63.68" width="38.88" height="11.09"/><rect class="cls-4" x="40.8" y="130.13" width="413.48" height="20.98"/><rect class="cls-5" x="51.58" y="135.07" width="38.88" height="11.09"/><rect class="cls-5" x="102.02" y="135.07" width="38.88" height="11.09"/><rect class="cls-5" x="152.45" y="135.07" width="38.88" height="11.09"/><rect class="cls-5" x="202.89" y="135.07" width="38.88" height="11.09"/><rect class="cls-5" x="253.32" y="135.07" width="38.88" height="11.09"/><rect class="cls-5" x="303.76" y="135.07" width="38.88" height="11.09"/><rect class="cls-5" x="354.19" y="135.07" width="38.88" height="11.09"/><rect class="cls-5" x="404.63" y="135.07" width="38.88" height="11.09"/><line class="cls-6" x1="454.28" y1="79.72" x2="454.28" y2="130.13"/><rect class="cls-7" x="62.22" y="86.19" width="107.23" height="37.92" rx="1.9"/><rect class="cls-7" x="193.93" y="86.19" width="107.23" height="37.92" rx="1.9"/><rect class="cls-7" x="325.64" y="86.19" width="107.23" height="37.92" rx="1.9"/><line class="cls-2" x1="40.8" y1="222.34" x2="40.8" y2="272.75"/><rect class="cls-3" x="40.8" y="222.34" width="413.48" height="50.41"/><rect class="cls-4" x="40.8" y="201.36" width="413.48" height="20.98"/><rect class="cls-5" x="51.58" y="206.3" width="38.88" height="11.09"/><rect class="cls-5" x="102.02" y="206.3" width="38.88" height="11.09"/><rect class="cls-5" x="152.45" y="206.3" width="38.88" height="11.09"/><rect class="cls-5" x="202.89" y="206.3" width="38.88" height="11.09"/><rect class="cls-5" x="253.32" y="206.3" width="38.88" height="11.09"/><rect class="cls-5" x="303.76" y="206.3" width="38.88" height="11.09"/><rect class="cls-5" x="354.19" y="206.3" width="38.88" height="11.09"/><rect class="cls-5" x="404.63" y="206.3" width="38.88" height="11.09"/><rect class="cls-4" x="40.8" y="272.75" width="413.48" height="20.98"/><rect class="cls-5" x="51.58" y="277.69" width="38.88" height="11.09"/><rect class="cls-5" x="102.02" y="277.69" width="38.88" height="11.09"/><rect class="cls-5" x="152.45" y="277.69" width="38.88" height="11.09"/><rect class="cls-5" x="202.89" y="277.69" width="38.88" height="11.09"/><rect class="cls-5" x="253.32" y="277.69" width="38.88" height="11.09"/><rect class="cls-5" x="303.76" y="277.69" width="38.88" height="11.09"/><rect class="cls-5" x="354.19" y="277.69" width="38.88" height="11.09"/><rect class="cls-5" x="404.63" y="277.69" width="38.88" height="11.09"/><line class="cls-6" x1="454.28" y1="222.34" x2="454.28" y2="272.75"/><rect class="cls-7" x="62.22" y="228.81" width="107.23" height="37.92" rx="1.9"/><rect class="cls-7" x="193.93" y="228.81" width="107.23" height="37.92" rx="1.9"/><rect class="cls-7" x="325.64" y="228.81" width="107.23" height="37.92" rx="1.9"/><line class="cls-2" x1="40.8" y1="364.96" x2="40.8" y2="415.37"/><rect class="cls-3" x="40.8" y="364.96" width="413.48" height="50.41"/><rect class="cls-4" x="40.8" y="343.98" width="413.48" height="20.98"/><rect class="cls-5" x="51.58" y="348.92" width="38.88" height="11.09"/><rect class="cls-5" x="102.02" y="348.92" width="38.88" height="11.09"/><rect class="cls-5" x="152.45" y="348.92" width="38.88" height="11.09"/><rect class="cls-5" x="202.89" y="348.92" width="38.88" height="11.09"/><rect class="cls-5" x="253.32" y="348.92" width="38.88" height="11.09"/><rect class="cls-5" x="303.76" y="348.92" width="38.88" height="11.09"/><rect class="cls-5" x="354.19" y="348.92" width="38.88" height="11.09"/><rect class="cls-5" x="404.63" y="348.92" width="38.88" height="11.09"/><rect class="cls-4" x="40.8" y="415.37" width="413.48" height="20.98"/><rect class="cls-5" x="51.58" y="420.31" width="38.88" height="11.09"/><rect class="cls-5" x="102.02" y="420.31" width="38.88" height="11.09"/><rect class="cls-5" x="152.45" y="420.31" width="38.88" height="11.09"/><rect class="cls-5" x="202.89" y="420.31" width="38.88" height="11.09"/><rect class="cls-5" x="253.32" y="420.31" width="38.88" height="11.09"/><rect class="cls-5" x="303.76" y="420.31" width="38.88" height="11.09"/><rect class="cls-5" x="354.19" y="420.31" width="38.88" height="11.09"/><rect class="cls-5" x="404.63" y="420.31" width="38.88" height="11.09"/><line class="cls-6" x1="454.28" y1="364.96" x2="454.28" y2="415.37"/><rect class="cls-7" x="62.22" y="371.43" width="107.23" height="37.92" rx="1.9"/><rect class="cls-7" x="193.93" y="371.43" width="107.23" height="37.92" rx="1.9"/><rect class="cls-7" x="325.64" y="371.43" width="107.23" height="37.92" rx="1.9"/></g></g></svg>